<?xml version="1.0" encoding="UTF-8" standalone="no"?>
<!DOCTYPE svg PUBLIC "-//W3C//DTD SVG 1.1//EN" "http://www.w3.org/Graphics/SVG/1.1/DTD/svg11.dtd">
<svg xmlns="http://www.w3.org/2000/svg" version="1.1" viewBox="0.00 0.00 855.00 850.00">
<clipPath id="clipping-path-0">
<path d="
  M 0.00 0.00
  L 855.00 0.00
  L 855.00 850.00
  L 0.00 850.00
  L 0.00 0.00
  Z"/>
</clipPath>
<g stroke-width="2.00" fill="none" stroke-linecap="butt" clip-path="url(#clipping-path-0)">
<path stroke="#7dbd97" vector-effect="non-scaling-stroke" d="
  M 805.62 340.07
  L 805.97 509.66"
/>
<path stroke="#7dbd97" vector-effect="non-scaling-stroke" d="
  M 46.97 509.31
  L 46.97 334.61"
/>
<path stroke="#7dbd97" vector-effect="non-scaling-stroke" d="
  M 169.53 162.63
  Q 176.73 164.92 188.94 172.68
  A 1.72 1.72 0.0 0 0 190.65 172.76
  Q 191.06 172.55 191.06 171.98
  A 1.23 1.21 17.6 0 0 190.55 171.01
  Q 181.62 164.67 171.96 160.42"
/>
<path stroke="#7dbd97" vector-effect="non-scaling-stroke" d="
  M 34.94 501.07
  L 34.97 342.90"
/>
<path stroke="#7dbd97" vector-effect="non-scaling-stroke" d="
  M 818.11 351.47
  L 818.15 497.76"
/>
<path stroke="#dbe6d4" vector-effect="non-scaling-stroke" d="
  M 424.6700 220.4300
  A 73.07 45.14 90.0 0 0 469.8100 147.3600
  A 73.07 45.14 90.0 0 0 424.6700 74.2900
  A 73.07 45.14 90.0 0 0 379.5300 147.3600
  A 73.07 45.14 90.0 0 0 424.6700 220.4300"
/>
<path stroke="#dbe6d4" vector-effect="non-scaling-stroke" d="
  M 194.50 168.21
  C 193.43 169.32 191.92 171.04 193.65 172.49
  Q 197.69 175.90 201.52 179.05
  C 204.26 181.31 206.62 179.67 208.93 177.93
  Q 237.16 156.72 269.57 144.08
  Q 270.98 143.53 272.41 143.19
  C 274.61 142.67 276.28 141.37 278.58 141.02
  C 279.90 140.82 280.97 140.15 282.24 139.76
  Q 301.81 133.88 321.56 131.39
  Q 322.82 131.23 323.09 129.99
  Q 323.69 127.23 323.85 124.60
  Q 324.54 112.73 324.49 98.59
  Q 324.48 95.58 321.50 96.01
  Q 318.00 96.52 314.61 97.29
  Q 288.17 103.28 263.44 116.33
  Q 225.27 136.47 194.50 168.21"
/>
<path stroke="#dbe6d4" vector-effect="non-scaling-stroke" d="
  M 596.84 298.72
  Q 596.80 298.09 596.45 297.87
  Q 595.84 297.48 595.87 298.20
  Q 595.88 298.47 595.90 298.73
  Q 595.92 298.99 595.78 298.76
  Q 595.70 298.64 595.55 298.59
  Q 595.29 298.50 595.17 298.74
  C 594.43 300.17 593.52 301.83 593.60 303.48
  Q 593.85 308.27 593.19 313.08
  Q 593.14 313.45 592.77 313.40
  Q 592.61 313.37 592.49 313.27
  Q 592.21 313.02 592.14 312.65
  Q 591.84 311.12 590.29 310.37
  Q 589.84 310.15 589.53 309.76
  Q 582.77 301.26 580.82 299.21
  Q 571.29 289.20 561.27 278.84
  Q 559.97 277.48 557.96 274.78
  Q 557.66 274.38 557.15 274.38
  L 555.98 274.38
  Q 555.50 274.38 555.12 274.07
  C 551.93 271.45 547.93 269.22 545.45 265.99
  Q 545.29 265.78 545.49 265.61
  L 545.76 265.37
  Q 545.85 265.30 545.94 265.38
  Q 548.84 268.08 551.85 269.20
  Q 552.85 269.57 553.58 270.32
  C 554.94 271.71 556.19 272.84 558.01 273.62
  Q 560.41 274.65 561.17 276.99
  Q 561.35 277.54 561.89 277.76
  Q 564.58 278.90 566.99 281.39
  Q 575.15 289.81 582.93 298.58
  Q 583.98 299.76 584.69 301.06
  C 586.05 303.52 587.66 305.47 590.37 306.50
  Q 590.85 306.68 591.20 306.31
  Q 592.52 304.94 592.61 302.86
  Q 592.83 297.53 592.15 293.31
  Q 592.05 292.67 591.56 292.21
  Q 591.09 291.77 590.61 291.32
  C 589.07 289.85 588.45 288.01 586.72 286.66
  Q 586.29 286.32 586.12 285.81
  C 585.41 283.72 583.56 283.40 582.03 281.99
  Q 575.99 276.44 570.58 270.75
  C 567.70 267.74 564.61 266.67 560.52 266.78
  Q 558.57 266.83 559.51 265.12
  Q 559.82 264.57 560.32 264.20
  A 0.71 0.70 54.4 0 0 560.48 263.21
  Q 560.28 262.93 559.95 262.91
  Q 559.39 262.87 559.26 262.33
  Q 558.33 258.49 555.01 257.45
  C 552.97 256.81 551.43 255.25 549.62 254.14
  Q 536.17 245.87 523.29 238.13
  Q 520.01 236.17 516.22 234.92
  Q 511.68 233.43 507.49 231.10
  A 1.91 1.91 0.0 0 0 504.69 232.37
  L 503.42 238.40
  A 1.56 1.55 -60.6 0 0 503.81 239.81
  Q 506.87 243.05 511.10 244.97
  C 512.63 245.67 514.33 245.93 515.95 246.35
  Q 517.47 246.74 518.39 247.92
  Q 519.32 249.09 520.46 250.18
  Q 521.26 250.92 520.20 250.67
  Q 517.05 249.92 514.13 247.92
  Q 511.98 246.44 509.70 245.75
  Q 506.46 244.76 504.46 243.78
  Q 502.29 242.72 500.46 241.97
  A 1.40 1.40 0.0 0 0 499.00 242.22
  Q 497.63 243.43 496.84 245.11
  Q 496.43 245.97 495.99 246.79
  Q 493.52 251.41 490.89 256.00
  C 481.72 271.99 467.86 278.31 450.29 281.74
  Q 443.42 283.09 432.14 283.02
  Q 421.23 282.96 412.51 282.69
  Q 393.43 282.10 376.07 273.71
  C 363.84 267.79 355.09 255.47 350.44 242.95
  Q 350.28 242.52 349.82 242.53
  Q 346.63 242.58 346.36 239.64
  C 346.12 237.05 345.08 234.29 343.89 232.02
  A 1.96 1.95 -21.5 0 0 341.64 231.05
  C 337.17 232.31 333.29 234.64 329.15 236.47
  Q 325.94 237.89 323.16 239.51
  Q 315.95 243.70 308.56 247.91
  C 305.85 249.46 303.62 251.73 301.22 253.76
  Q 298.42 256.13 295.36 258.23
  Q 288.67 262.82 285.63 265.47
  Q 277.98 272.13 269.99 279.97
  Q 268.20 281.72 266.10 283.23
  Q 264.16 284.62 262.91 286.66
  Q 260.72 290.22 257.64 293.80
  Q 256.25 295.40 255.88 297.36
  Q 254.99 302.02 254.61 306.53
  Q 254.51 307.72 254.30 306.54
  L 252.79 298.17
  A 0.30 0.30 0.0 0 0 252.47 297.93
  L 252.15 297.95
  A 0.57 0.56 2.5 0 0 251.63 298.42
  L 251.00 302.56"
/>
<path stroke="#7dbd97" vector-effect="non-scaling-stroke" d="
  M 251.00 302.56
  Q 250.33 294.89 249.83 287.25
  Q 249.45 281.32 246.18 264.93
  Q 239.65 232.25 224.39 206.53
  C 219.07 197.56 212.78 189.66 205.05 182.72
  Q 202.81 180.71 203.60 183.56
  Q 203.66 183.75 204.62 184.88
  C 210.69 192.00 216.59 198.81 221.14 206.16
  Q 230.91 221.92 236.82 239.01
  Q 243.75 259.05 246.02 280.33"
/>
<path stroke="#dbe6d4" vector-effect="non-scaling-stroke" d="
  M 246.02 280.33
  Q 244.54 284.43 245.08 289.15
  A 1.31 1.20 24.1 0 0 245.37 289.82
  Q 245.52 290.00 245.67 290.21
  Q 245.84 290.45 245.86 290.77
  Q 246.01 293.28 245.79 295.75
  Q 245.56 298.31 246.03 300.66
  Q 246.93 305.12 246.61 310.32
  Q 246.15 317.77 246.62 324.89
  Q 246.63 325.05 246.48 325.11
  L 246.04 325.26
  Q 245.74 325.37 245.73 325.04
  L 245.50 312.29
  A 0.68 0.68 0.0 0 0 244.53 311.69
  Q 243.13 312.36 242.08 313.72
  Q 239.78 316.71 238.14 319.83
  Q 234.83 326.13 231.74 331.81
  Q 230.95 333.26 229.89 334.60
  Q 227.72 337.34 229.55 340.28
  Q 229.90 340.84 229.24 340.94
  L 225.82 341.44
  Q 225.17 341.53 225.09 342.18
  L 225.04 342.52
  A 0.46 0.46 0.0 0 0 225.45 343.04
  L 228.30 343.40"
/>
<path stroke="#6a7166" vector-effect="non-scaling-stroke" d="
  M 228.30 343.40
  Q 204.18 345.01 188.26 347.74
  C 169.40 350.97 150.67 355.51 134.04 364.30
  Q 120.49 371.45 111.21 382.66
  Q 107.62 387.00 104.49 393.14
  Q 101.11 399.79 99.93 404.79
  Q 97.86 413.55 97.72 416.27
  Q 95.70 458.00 98.36 488.80
  Q 100.11 509.02 106.21 528.74
  C 117.05 563.80 141.35 591.20 172.64 609.81
  Q 182.54 615.69 190.89 619.55
  C 225.05 635.36 263.00 644.54 300.55 649.99
  Q 337.33 655.33 374.40 657.21
  Q 438.21 660.45 496.72 657.10
  Q 510.13 656.34 524.46 654.97
  Q 571.37 650.48 610.78 639.72
  Q 625.23 635.78 644.32 628.38
  C 648.15 626.89 652.01 624.98 655.75 623.25
  Q 675.77 613.99 693.42 600.23
  C 707.28 589.42 719.11 575.62 728.02 560.68
  Q 731.88 554.20 735.22 546.55
  C 744.73 524.67 749.32 500.54 750.50 475.74
  C 750.66 472.37 751.19 469.05 751.28 465.72
  Q 752.16 434.85 751.60 425.35
  Q 750.14 400.40 732.29 383.49
  Q 723.44 375.10 712.93 369.81
  C 695.86 361.22 677.10 356.18 658.22 353.21
  Q 641.10 350.52 623.74 349.01
  Q 600.60 346.99 577.75 346.26
  Q 576.07 346.21 570.78 345.83"
/>
<path stroke="#dbe6d4" vector-effect="non-scaling-stroke" d="
  M 570.78 345.83
  Q 571.22 345.42 571.64 345.06
  Q 572.36 344.44 571.43 344.65
  Q 570.89 344.78 570.51 344.37
  Q 570.08 343.91 569.45 343.83
  L 567.12 343.54
  Q 566.45 343.46 565.90 343.07
  Q 565.20 342.57 564.22 342.77
  Q 563.62 342.90 564.12 342.53
  Q 564.22 342.45 564.33 342.39
  A 0.34 0.33 -24.7 0 0 564.48 342.00
  Q 564.43 341.84 564.28 341.78
  Q 563.88 341.63 564.31 341.59
  Q 565.10 341.53 565.49 340.79
  Q 565.66 340.47 565.48 340.15
  Q 565.46 340.11 565.41 340.10
  Q 564.37 339.77 565.46 339.56
  Q 566.43 339.38 567.16 338.70
  Q 567.55 338.35 568.08 338.35
  Q 569.97 338.36 571.79 338.36
  Q 571.89 338.36 571.88 338.47
  Q 571.87 338.52 571.90 338.56
  Q 571.99 338.69 572.15 338.68
  Q 578.69 338.15 585.41 338.43
  Q 585.86 338.45 586.10 338.06
  Q 586.44 337.51 586.04 336.69"
/>
<path stroke="#7dbd97" vector-effect="non-scaling-stroke" d="
  M 586.04 336.69
  L 592.04 337.00
  A 1.54 1.53 22.3 0 0 593.27 336.49
  Q 594.34 335.27 595.74 334.61
  Q 596.33 334.33 596.41 333.68
  C 597.07 327.78 596.98 321.89 597.52 315.90
  Q 597.98 310.84 598.50 305.24
  Q 601.24 275.46 611.14 247.58
  C 621.18 219.31 639.41 193.61 665.28 178.50
  C 670.00 175.74 675.02 173.44 679.78 170.83
  Q 682.55 169.31 679.43 168.78
  Q 679.33 168.77 677.79 169.43
  Q 666.41 174.35 656.83 180.73
  C 646.28 187.75 636.53 197.49 629.40 207.41
  Q 621.56 218.31 617.96 225.23
  Q 614.98 230.96 611.19 240.32
  C 603.71 258.82 599.24 278.92 596.84 298.72"
/>
<path stroke="#83c19f" vector-effect="non-scaling-stroke" d="
  M 586.04 336.69
  C 566.86 336.08 547.51 336.09 528.51 335.72
  C 461.36 334.39 394.62 333.40 327.00 332.32
  Q 316.41 332.15 307.00 332.07
  Q 284.42 331.87 254.12 330.70
  Q 252.23 330.62 250.05 330.75
  A 0.67 0.67 0.0 0 1 249.40 329.81
  C 250.13 328.22 249.18 326.99 249.15 325.38
  Q 248.88 307.93 247.24 289.75
  Q 246.85 285.46 246.02 280.33"
/>
<path stroke="#83c19f" vector-effect="non-scaling-stroke" d="
  M 251.00 302.56
  L 252.23 324.09
  A 3.02 3.02 0.0 0 0 254.86 326.92
  Q 262.39 327.89 270.25 328.01
  Q 295.23 328.40 321.37 328.79
  Q 374.03 329.58 429.50 330.56
  Q 491.73 331.65 556.00 332.70
  Q 570.46 332.93 584.75 332.69
  C 589.14 332.61 594.41 331.55 594.58 326.25
  Q 595.01 312.41 596.84 298.72"
/>
<path stroke="#71756e" vector-effect="non-scaling-stroke" d="
  M 570.78 345.83
  C 551.07 345.48 531.34 344.91 511.64 344.80
  Q 429.61 344.36 403.75 343.58
  Q 380.86 342.89 357.96 342.61"
/>
<path stroke="#83c19f" vector-effect="non-scaling-stroke" d="
  M 357.96 342.61
  C 355.82 342.41 353.79 342.03 351.67 342.01
  Q 332.49 341.91 313.28 341.65"
/>
<path stroke="#71756e" vector-effect="non-scaling-stroke" d="
  M 313.28 341.65
  Q 275.01 341.55 259.25 341.89
  Q 251.68 342.06 228.30 343.40"
/>
<path stroke="#134c31" vector-effect="non-scaling-stroke" d="
  M 313.28 341.65
  Q 317.45 342.39 322.49 342.13
  Q 326.51 341.93 333.33 342.06
  Q 333.84 342.07 335.16 342.31
  Q 335.92 342.45 337.00 342.51
  Q 348.75 343.09 357.96 342.61"
/>
<path stroke="#dbe6d4" vector-effect="non-scaling-stroke" d="
  M 116.66 293.08
  L 116.67 293.08
  Q 116.82 293.14 116.89 292.99
  Q 128.80 267.71 145.41 244.65
  Q 156.50 229.26 165.81 218.65
  Q 170.60 213.19 175.78 207.74
  C 177.47 205.97 178.78 204.26 180.73 202.73
  C 181.60 202.05 182.08 201.07 182.88 200.32
  Q 191.53 192.23 200.09 184.25
  Q 201.24 183.17 200.14 182.04
  Q 195.90 177.67 190.80 174.68
  A 1.92 1.92 0.0 0 0 188.83 174.70
  Q 187.39 175.58 186.34 176.76
  Q 177.65 186.50 170.25 196.28
  Q 143.10 232.15 124.43 273.05
  Q 120.16 282.43 116.54 292.79
  Q 116.47 293.00 116.66 293.08"
/>
<path stroke="#dbe6d4" vector-effect="non-scaling-stroke" d="
  M 605.47 310.56
  C 605.00 309.77 605.07 308.74 604.66 307.94
  Q 604.54 307.70 604.29 307.57
  Q 603.80 307.31 603.32 308.17
  A 1.13 1.04 62.6 0 0 603.19 308.65
  Q 603.16 310.24 603.08 311.85
  Q 603.04 312.91 602.52 314.10
  Q 599.89 320.22 604.37 325.55
  Q 606.20 327.73 607.26 330.65
  Q 608.11 332.95 610.53 333.32
  Q 610.91 333.38 611.30 333.34
  Q 614.07 333.03 612.90 330.50
  L 610.37 324.95
  A 1.48 1.47 65.9 0 1 611.12 322.98
  C 612.59 322.35 612.27 320.59 611.51 319.58
  Q 608.22 315.21 605.47 310.56"
/>
<path stroke="#dbe6d4" vector-effect="non-scaling-stroke" d="
  M 276.52 291.33
  Q 281.35 286.38 287.15 280.91
  C 290.88 277.39 294.98 274.21 299.11 271.01
  C 301.25 269.36 302.78 267.33 305.43 266.42
  A 1.23 1.21 0.4 0 0 306.15 265.72
  Q 306.31 265.30 306.69 265.06
  Q 311.01 262.18 314.78 259.11
  A 0.46 0.46 0.0 0 0 314.83 258.44
  Q 314.59 258.18 314.23 258.20
  Q 313.36 258.25 312.73 258.65
  Q 305.79 263.10 298.09 268.96
  C 295.95 270.59 294.20 272.55 291.91 273.92
  Q 289.02 275.64 286.70 278.06
  Q 285.57 279.24 284.09 280.13
  Q 282.69 280.97 281.89 282.42
  Q 280.33 285.19 277.31 287.62
  Q 276.94 287.92 276.78 288.37
  C 276.47 289.25 276.35 289.83 275.53 290.39
  Q 273.05 292.11 271.01 294.06
  Q 270.25 294.79 270.08 295.83
  Q 270.05 296.03 270.11 296.23
  A 0.58 0.58 0.0 0 0 271.04 296.49
  Q 273.81 294.11 276.52 291.33"
/>
<path stroke="#0c7e30" vector-effect="non-scaling-stroke" d="
  M 405.90 590.79
  Q 407.03 592.47 408.92 591.75
  Q 411.54 590.75 418.27 585.57
  Q 424.64 580.68 433.67 573.16
  Q 517.66 503.29 604.25 431.45
  C 606.26 429.79 608.40 428.51 610.58 427.13
  A 1.17 1.17 0.0 0 1 611.92 427.19
  Q 614.46 429.13 614.86 432.55
  Q 619.28 470.38 623.82 509.32
  Q 624.53 515.42 625.45 521.09
  Q 626.23 525.83 627.86 528.00
  C 632.93 534.76 639.79 532.87 646.67 531.08
  Q 684.04 521.33 721.29 511.46
  Q 729.43 509.31 737.93 506.88
  C 739.68 506.38 741.34 505.55 742.09 503.76
  C 744.94 496.96 745.50 490.06 744.91 482.39
  Q 744.87 481.87 744.34 481.93
  Q 741.39 482.27 738.53 483.01
  Q 697.63 493.56 660.06 503.66
  Q 654.42 505.18 649.41 505.16
  A 1.88 1.87 75.9 0 1 647.76 504.17
  Q 646.54 501.89 646.23 499.41
  Q 640.83 456.54 635.34 407.38
  C 634.43 399.22 633.60 391.94 624.42 388.89
  Q 622.54 388.27 620.69 389.15
  Q 616.13 391.32 613.09 393.84
  Q 589.39 413.48 534.57 459.24
  C 522.19 469.57 509.26 480.00 496.97 490.37
  Q 489.38 496.77 481.61 503.15
  Q 452.54 527.05 426.15 549.35
  C 420.61 554.03 420.08 538.45 420.07 536.62
  Q 420.04 517.78 419.98 498.81
  Q 419.96 492.12 419.05 485.86
  C 417.89 477.95 412.13 473.19 403.99 476.12
  Q 394.68 479.47 384.24 483.43
  Q 324.98 505.88 266.96 527.72
  C 263.29 529.10 261.41 525.05 261.00 522.00
  Q 258.09 500.20 255.37 474.51
  Q 255.03 471.30 254.33 467.51
  C 253.21 461.49 252.01 455.12 244.72 454.21
  Q 241.57 453.81 238.49 454.35
  C 228.69 456.04 219.05 458.67 208.83 461.02
  Q 201.74 462.66 194.53 464.34
  Q 148.45 475.08 113.85 482.80
  C 111.03 483.43 108.41 484.53 105.59 485.14
  Q 105.14 485.23 105.08 485.68
  Q 104.60 489.43 105.87 492.63
  Q 107.60 497.00 108.34 501.67
  C 108.74 504.16 110.50 507.63 113.51 506.86
  Q 127.34 503.35 141.98 500.11
  Q 149.30 498.49 157.29 496.67
  Q 191.65 488.84 224.28 481.14
  Q 231.46 479.45 232.87 486.09
  Q 233.72 490.12 234.17 494.25
  Q 237.15 521.90 240.51 547.00
  C 241.24 552.44 245.95 556.84 251.32 557.12
  Q 253.88 557.25 259.21 555.31
  Q 267.04 552.45 274.75 549.54
  Q 320.43 532.32 368.73 514.17
  C 372.17 512.88 375.44 511.19 378.98 510.25
  C 385.71 508.45 397.20 499.87 397.14 514.58
  Q 396.99 545.15 397.07 573.02
  C 397.09 580.13 398.22 586.47 405.15 590.11
  A 2.15 2.11 -2.2 0 1 405.90 590.79"
/>
</g>
<path fill="#d4e1cc" d="
  M 805.62 340.07
  L 805.97 509.66
  Q 798.04 514.61 789.97 515.03
  Q 789.41 515.06 789.29 515.61
  C 768.05 619.37 704.81 711.09 613.89 765.28
  Q 519.68 821.44 410.42 817.66
  Q 349.91 815.57 291.73 793.04
  C 171.01 746.30 83.88 639.45 59.12 512.56
  Q 59.02 512.06 58.51 512.04
  Q 52.17 511.91 46.97 509.31
  L 46.97 334.61
  Q 55.93 330.56 66.45 332.59
  Q 66.93 332.69 67.07 332.21
  Q 95.91 233.93 169.53 162.63
  Q 176.73 164.92 188.94 172.68
  A 1.72 1.72 0.0 0 0 190.65 172.76
  Q 191.06 172.55 191.06 171.98
  A 1.23 1.21 17.6 0 0 190.55 171.01
  Q 181.62 164.67 171.96 160.42
  Q 247.87 89.88 348.71 67.87
  Q 349.27 67.75 349.22 67.17
  C 346.79 40.46 367.16 19.23 390.25 10.02
  C 418.42 -1.22 452.31 0.80 477.85 18.11
  C 494.63 29.49 505.73 47.48 503.72 68.02
  Q 503.67 68.57 504.21 68.70
  Q 567.28 83.58 617.46 114.89
  Q 704.40 169.14 752.58 259.80
  Q 771.36 295.14 782.52 334.85
  Q 782.66 335.34 783.16 335.27
  Q 795.46 333.52 805.62 340.07
  Z
  M 424.6700 220.4300
  A 73.07 45.14 90.0 0 0 469.8100 147.3600
  A 73.07 45.14 90.0 0 0 424.6700 74.2900
  A 73.07 45.14 90.0 0 0 379.5300 147.3600
  A 73.07 45.14 90.0 0 0 424.6700 220.4300
  Z
  M 194.50 168.21
  C 193.43 169.32 191.92 171.04 193.65 172.49
  Q 197.69 175.90 201.52 179.05
  C 204.26 181.31 206.62 179.67 208.93 177.93
  Q 237.16 156.72 269.57 144.08
  Q 270.98 143.53 272.41 143.19
  C 274.61 142.67 276.28 141.37 278.58 141.02
  C 279.90 140.82 280.97 140.15 282.24 139.76
  Q 301.81 133.88 321.56 131.39
  Q 322.82 131.23 323.09 129.99
  Q 323.69 127.23 323.85 124.60
  Q 324.54 112.73 324.49 98.59
  Q 324.48 95.58 321.50 96.01
  Q 318.00 96.52 314.61 97.29
  Q 288.17 103.28 263.44 116.33
  Q 225.27 136.47 194.50 168.21
  Z
  M 596.84 298.72
  Q 596.80 298.09 596.45 297.87
  Q 595.84 297.48 595.87 298.20
  Q 595.88 298.47 595.90 298.73
  Q 595.92 298.99 595.78 298.76
  Q 595.70 298.64 595.55 298.59
  Q 595.29 298.50 595.17 298.74
  C 594.43 300.17 593.52 301.83 593.60 303.48
  Q 593.85 308.27 593.19 313.08
  Q 593.14 313.45 592.77 313.40
  Q 592.61 313.37 592.49 313.27
  Q 592.21 313.02 592.14 312.65
  Q 591.84 311.12 590.29 310.37
  Q 589.84 310.15 589.53 309.76
  Q 582.77 301.26 580.82 299.21
  Q 571.29 289.20 561.27 278.84
  Q 559.97 277.48 557.96 274.78
  Q 557.66 274.38 557.15 274.38
  L 555.98 274.38
  Q 555.50 274.38 555.12 274.07
  C 551.93 271.45 547.93 269.22 545.45 265.99
  Q 545.29 265.78 545.49 265.61
  L 545.76 265.37
  Q 545.85 265.30 545.94 265.38
  Q 548.84 268.08 551.85 269.20
  Q 552.85 269.57 553.58 270.32
  C 554.94 271.71 556.19 272.84 558.01 273.62
  Q 560.41 274.65 561.17 276.99
  Q 561.35 277.54 561.89 277.76
  Q 564.58 278.90 566.99 281.39
  Q 575.15 289.81 582.93 298.58
  Q 583.98 299.76 584.69 301.06
  C 586.05 303.52 587.66 305.47 590.37 306.50
  Q 590.85 306.68 591.20 306.31
  Q 592.52 304.94 592.61 302.86
  Q 592.83 297.53 592.15 293.31
  Q 592.05 292.67 591.56 292.21
  Q 591.09 291.77 590.61 291.32
  C 589.07 289.85 588.45 288.01 586.72 286.66
  Q 586.29 286.32 586.12 285.81
  C 585.41 283.72 583.56 283.40 582.03 281.99
  Q 575.99 276.44 570.58 270.75
  C 567.70 267.74 564.61 266.67 560.52 266.78
  Q 558.57 266.83 559.51 265.12
  Q 559.82 264.57 560.32 264.20
  A 0.71 0.70 54.4 0 0 560.48 263.21
  Q 560.28 262.93 559.95 262.91
  Q 559.39 262.87 559.26 262.33
  Q 558.33 258.49 555.01 257.45
  C 552.97 256.81 551.43 255.25 549.62 254.14
  Q 536.17 245.87 523.29 238.13
  Q 520.01 236.17 516.22 234.92
  Q 511.68 233.43 507.49 231.10
  A 1.91 1.91 0.0 0 0 504.69 232.37
  L 503.42 238.40
  A 1.56 1.55 -60.6 0 0 503.81 239.81
  Q 506.87 243.05 511.10 244.97
  C 512.63 245.67 514.33 245.93 515.95 246.35
  Q 517.47 246.74 518.39 247.92
  Q 519.32 249.09 520.46 250.18
  Q 521.26 250.92 520.20 250.67
  Q 517.05 249.92 514.13 247.92
  Q 511.98 246.44 509.70 245.75
  Q 506.46 244.76 504.46 243.78
  Q 502.29 242.72 500.46 241.97
  A 1.40 1.40 0.0 0 0 499.00 242.22
  Q 497.63 243.43 496.84 245.11
  Q 496.43 245.97 495.99 246.79
  Q 493.52 251.41 490.89 256.00
  C 481.72 271.99 467.86 278.31 450.29 281.74
  Q 443.42 283.09 432.14 283.02
  Q 421.23 282.96 412.51 282.69
  Q 393.43 282.10 376.07 273.71
  C 363.84 267.79 355.09 255.47 350.44 242.95
  Q 350.28 242.52 349.82 242.53
  Q 346.63 242.58 346.36 239.64
  C 346.12 237.05 345.08 234.29 343.89 232.02
  A 1.96 1.95 -21.5 0 0 341.64 231.05
  C 337.17 232.31 333.29 234.64 329.15 236.47
  Q 325.94 237.89 323.16 239.51
  Q 315.95 243.70 308.56 247.91
  C 305.85 249.46 303.62 251.73 301.22 253.76
  Q 298.42 256.13 295.36 258.23
  Q 288.67 262.82 285.63 265.47
  Q 277.98 272.13 269.99 279.97
  Q 268.20 281.72 266.10 283.23
  Q 264.16 284.62 262.91 286.66
  Q 260.72 290.22 257.64 293.80
  Q 256.25 295.40 255.88 297.36
  Q 254.99 302.02 254.61 306.53
  Q 254.51 307.72 254.30 306.54
  L 252.79 298.17
  A 0.30 0.30 0.0 0 0 252.47 297.93
  L 252.15 297.95
  A 0.57 0.56 2.5 0 0 251.63 298.42
  L 251.00 302.56
  Q 250.33 294.89 249.83 287.25
  Q 249.45 281.32 246.18 264.93
  Q 239.65 232.25 224.39 206.53
  C 219.07 197.56 212.78 189.66 205.05 182.72
  Q 202.81 180.71 203.60 183.56
  Q 203.66 183.75 204.62 184.88
  C 210.69 192.00 216.59 198.81 221.14 206.16
  Q 230.91 221.92 236.82 239.01
  Q 243.75 259.05 246.02 280.33
  Q 244.54 284.43 245.08 289.15
  A 1.31 1.20 24.1 0 0 245.37 289.82
  Q 245.52 290.00 245.67 290.21
  Q 245.84 290.45 245.86 290.77
  Q 246.01 293.28 245.79 295.75
  Q 245.56 298.31 246.03 300.66
  Q 246.93 305.12 246.61 310.32
  Q 246.15 317.77 246.62 324.89
  Q 246.63 325.05 246.48 325.11
  L 246.04 325.26
  Q 245.74 325.37 245.73 325.04
  L 245.50 312.29
  A 0.68 0.68 0.0 0 0 244.53 311.69
  Q 243.13 312.36 242.08 313.72
  Q 239.78 316.71 238.14 319.83
  Q 234.83 326.13 231.74 331.81
  Q 230.95 333.26 229.89 334.60
  Q 227.72 337.34 229.55 340.28
  Q 229.90 340.84 229.24 340.94
  L 225.82 341.44
  Q 225.17 341.53 225.09 342.18
  L 225.04 342.52
  A 0.46 0.46 0.0 0 0 225.45 343.04
  L 228.30 343.40
  Q 204.18 345.01 188.26 347.74
  C 169.40 350.97 150.67 355.51 134.04 364.30
  Q 120.49 371.45 111.21 382.66
  Q 107.62 387.00 104.49 393.14
  Q 101.11 399.79 99.93 404.79
  Q 97.86 413.55 97.72 416.27
  Q 95.70 458.00 98.36 488.80
  Q 100.11 509.02 106.21 528.74
  C 117.05 563.80 141.35 591.20 172.64 609.81
  Q 182.54 615.69 190.89 619.55
  C 225.05 635.36 263.00 644.54 300.55 649.99
  Q 337.33 655.33 374.40 657.21
  Q 438.21 660.45 496.72 657.10
  Q 510.13 656.34 524.46 654.97
  Q 571.37 650.48 610.78 639.72
  Q 625.23 635.78 644.32 628.38
  C 648.15 626.89 652.01 624.98 655.75 623.25
  Q 675.77 613.99 693.42 600.23
  C 707.28 589.42 719.11 575.62 728.02 560.68
  Q 731.88 554.20 735.22 546.55
  C 744.73 524.67 749.32 500.54 750.50 475.74
  C 750.66 472.37 751.19 469.05 751.28 465.72
  Q 752.16 434.85 751.60 425.35
  Q 750.14 400.40 732.29 383.49
  Q 723.44 375.10 712.93 369.81
  C 695.86 361.22 677.10 356.18 658.22 353.21
  Q 641.10 350.52 623.74 349.01
  Q 600.60 346.99 577.75 346.26
  Q 576.07 346.21 570.78 345.83
  Q 571.22 345.42 571.64 345.06
  Q 572.36 344.44 571.43 344.65
  Q 570.89 344.78 570.51 344.37
  Q 570.08 343.91 569.45 343.83
  L 567.12 343.54
  Q 566.45 343.46 565.90 343.07
  Q 565.20 342.57 564.22 342.77
  Q 563.62 342.90 564.12 342.53
  Q 564.22 342.45 564.33 342.39
  A 0.34 0.33 -24.7 0 0 564.48 342.00
  Q 564.43 341.84 564.28 341.78
  Q 563.88 341.63 564.31 341.59
  Q 565.10 341.53 565.49 340.79
  Q 565.66 340.47 565.48 340.15
  Q 565.46 340.11 565.41 340.10
  Q 564.37 339.77 565.46 339.56
  Q 566.43 339.38 567.16 338.70
  Q 567.55 338.35 568.08 338.35
  Q 569.97 338.36 571.79 338.36
  Q 571.89 338.36 571.88 338.47
  Q 571.87 338.52 571.90 338.56
  Q 571.99 338.69 572.15 338.68
  Q 578.69 338.15 585.41 338.43
  Q 585.86 338.45 586.10 338.06
  Q 586.44 337.51 586.04 336.69
  L 592.04 337.00
  A 1.54 1.53 22.3 0 0 593.27 336.49
  Q 594.34 335.27 595.74 334.61
  Q 596.33 334.33 596.41 333.68
  C 597.07 327.78 596.98 321.89 597.52 315.90
  Q 597.98 310.84 598.50 305.24
  Q 601.24 275.46 611.14 247.58
  C 621.18 219.31 639.41 193.61 665.28 178.50
  C 670.00 175.74 675.02 173.44 679.78 170.83
  Q 682.55 169.31 679.43 168.78
  Q 679.33 168.77 677.79 169.43
  Q 666.41 174.35 656.83 180.73
  C 646.28 187.75 636.53 197.49 629.40 207.41
  Q 621.56 218.31 617.96 225.23
  Q 614.98 230.96 611.19 240.32
  C 603.71 258.82 599.24 278.92 596.84 298.72
  Z
  M 116.66 293.08
  L 116.67 293.08
  Q 116.82 293.14 116.89 292.99
  Q 128.80 267.71 145.41 244.65
  Q 156.50 229.26 165.81 218.65
  Q 170.60 213.19 175.78 207.74
  C 177.47 205.97 178.78 204.26 180.73 202.73
  C 181.60 202.05 182.08 201.07 182.88 200.32
  Q 191.53 192.23 200.09 184.25
  Q 201.24 183.17 200.14 182.04
  Q 195.90 177.67 190.80 174.68
  A 1.92 1.92 0.0 0 0 188.83 174.70
  Q 187.39 175.58 186.34 176.76
  Q 177.65 186.50 170.25 196.28
  Q 143.10 232.15 124.43 273.05
  Q 120.16 282.43 116.54 292.79
  Q 116.47 293.00 116.66 293.08
  Z
  M 605.47 310.56
  C 605.00 309.77 605.07 308.74 604.66 307.94
  Q 604.54 307.70 604.29 307.57
  Q 603.80 307.31 603.32 308.17
  A 1.13 1.04 62.6 0 0 603.19 308.65
  Q 603.16 310.24 603.08 311.85
  Q 603.04 312.91 602.52 314.10
  Q 599.89 320.22 604.37 325.55
  Q 606.20 327.73 607.26 330.65
  Q 608.11 332.95 610.53 333.32
  Q 610.91 333.38 611.30 333.34
  Q 614.07 333.03 612.90 330.50
  L 610.37 324.95
  A 1.48 1.47 65.9 0 1 611.12 322.98
  C 612.59 322.35 612.27 320.59 611.51 319.58
  Q 608.22 315.21 605.47 310.56
  Z"
/>
<ellipse fill="#e1eadc" cx="0.00" cy="0.00" transform="translate(424.67,147.36) rotate(90.0)" rx="73.07" ry="45.14"/>
<path fill="#e1eadc" d="
  M 193.65 172.49
  C 191.92 171.04 193.43 169.32 194.50 168.21
  Q 225.27 136.47 263.44 116.33
  Q 288.17 103.28 314.61 97.29
  Q 318.00 96.52 321.50 96.01
  Q 324.48 95.58 324.49 98.59
  Q 324.54 112.73 323.85 124.60
  Q 323.69 127.23 323.09 129.99
  Q 322.82 131.23 321.56 131.39
  Q 301.81 133.88 282.24 139.76
  C 280.97 140.15 279.90 140.82 278.58 141.02
  C 276.28 141.37 274.61 142.67 272.41 143.19
  Q 270.98 143.53 269.57 144.08
  Q 237.16 156.72 208.93 177.93
  C 206.62 179.67 204.26 181.31 201.52 179.05
  Q 197.69 175.90 193.65 172.49
  Z"
/>
<path fill="#259862" d="
  M 171.96 160.42
  Q 181.62 164.67 190.55 171.01
  A 1.23 1.21 17.6 0 1 191.06 171.98
  Q 191.06 172.55 190.65 172.76
  A 1.72 1.72 0.0 0 1 188.94 172.68
  Q 176.73 164.92 169.53 162.63
  L 171.96 160.42
  Z"
/>
<path fill="#259862" d="
  M 586.04 336.69
  C 566.86 336.08 547.51 336.09 528.51 335.72
  C 461.36 334.39 394.62 333.40 327.00 332.32
  Q 316.41 332.15 307.00 332.07
  Q 284.42 331.87 254.12 330.70
  Q 252.23 330.62 250.05 330.75
  A 0.67 0.67 0.0 0 1 249.40 329.81
  C 250.13 328.22 249.18 326.99 249.15 325.38
  Q 248.88 307.93 247.24 289.75
  Q 246.85 285.46 246.02 280.33
  Q 243.75 259.05 236.82 239.01
  Q 230.91 221.92 221.14 206.16
  C 216.59 198.81 210.69 192.00 204.62 184.88
  Q 203.66 183.75 203.60 183.56
  Q 202.81 180.71 205.05 182.72
  C 212.78 189.66 219.07 197.56 224.39 206.53
  Q 239.65 232.25 246.18 264.93
  Q 249.45 281.32 249.83 287.25
  Q 250.33 294.89 251.00 302.56
  L 252.23 324.09
  A 3.02 3.02 0.0 0 0 254.86 326.92
  Q 262.39 327.89 270.25 328.01
  Q 295.23 328.40 321.37 328.79
  Q 374.03 329.58 429.50 330.56
  Q 491.73 331.65 556.00 332.70
  Q 570.46 332.93 584.75 332.69
  C 589.14 332.61 594.41 331.55 594.58 326.25
  Q 595.01 312.41 596.84 298.72
  C 599.24 278.92 603.71 258.82 611.19 240.32
  Q 614.98 230.96 617.96 225.23
  Q 621.56 218.31 629.40 207.41
  C 636.53 197.49 646.28 187.75 656.83 180.73
  Q 666.41 174.35 677.79 169.43
  Q 679.33 168.77 679.43 168.78
  Q 682.55 169.31 679.78 170.83
  C 675.02 173.44 670.00 175.74 665.28 178.50
  C 639.41 193.61 621.18 219.31 611.14 247.58
  Q 601.24 275.46 598.50 305.24
  Q 597.98 310.84 597.52 315.90
  C 596.98 321.89 597.07 327.78 596.41 333.68
  Q 596.33 334.33 595.74 334.61
  Q 594.34 335.27 593.27 336.49
  A 1.54 1.53 22.3 0 1 592.04 337.00
  L 586.04 336.69
  Z"
/>
<path fill="#e1eadc" d="
  M 116.54 292.79
  Q 120.16 282.43 124.43 273.05
  Q 143.10 232.15 170.25 196.28
  Q 177.65 186.50 186.34 176.76
  Q 187.39 175.58 188.83 174.70
  A 1.92 1.92 0.0 0 1 190.80 174.68
  Q 195.90 177.67 200.14 182.04
  Q 201.24 183.17 200.09 184.25
  Q 191.53 192.23 182.88 200.32
  C 182.08 201.07 181.60 202.05 180.73 202.73
  C 178.78 204.26 177.47 205.97 175.78 207.74
  Q 170.60 213.19 165.81 218.65
  Q 156.50 229.26 145.41 244.65
  Q 128.80 267.71 116.89 292.99
  Q 116.82 293.14 116.67 293.08
  L 116.66 293.08
  Q 116.47 293.00 116.54 292.79
  Z"
/>
<path fill="#e1eadc" d="
  M 596.84 298.72
  Q 595.01 312.41 594.58 326.25
  C 594.41 331.55 589.14 332.61 584.75 332.69
  Q 570.46 332.93 556.00 332.70
  Q 491.73 331.65 429.50 330.56
  Q 374.03 329.58 321.37 328.79
  Q 295.23 328.40 270.25 328.01
  Q 262.39 327.89 254.86 326.92
  A 3.02 3.02 0.0 0 1 252.23 324.09
  L 251.00 302.56
  L 251.63 298.42
  A 0.57 0.56 2.5 0 1 252.15 297.95
  L 252.47 297.93
  A 0.30 0.30 0.0 0 1 252.79 298.17
  L 254.30 306.54
  Q 254.51 307.72 254.61 306.53
  Q 254.99 302.02 255.88 297.36
  Q 256.25 295.40 257.64 293.80
  Q 260.72 290.22 262.91 286.66
  Q 264.16 284.62 266.10 283.23
  Q 268.20 281.72 269.99 279.97
  Q 277.98 272.13 285.63 265.47
  Q 288.67 262.82 295.36 258.23
  Q 298.42 256.13 301.22 253.76
  C 303.62 251.73 305.85 249.46 308.56 247.91
  Q 315.95 243.70 323.16 239.51
  Q 325.94 237.89 329.15 236.47
  C 333.29 234.64 337.17 232.31 341.64 231.05
  A 1.96 1.95 -21.5 0 1 343.89 232.02
  C 345.08 234.29 346.12 237.05 346.36 239.64
  Q 346.63 242.58 349.82 242.53
  Q 350.28 242.52 350.44 242.95
  C 355.09 255.47 363.84 267.79 376.07 273.71
  Q 393.43 282.10 412.51 282.69
  Q 421.23 282.96 432.14 283.02
  Q 443.42 283.09 450.29 281.74
  C 467.86 278.31 481.72 271.99 490.89 256.00
  Q 493.52 251.41 495.99 246.79
  Q 496.43 245.97 496.84 245.11
  Q 497.63 243.43 499.00 242.22
  A 1.40 1.40 0.0 0 1 500.46 241.97
  Q 502.29 242.72 504.46 243.78
  Q 506.46 244.76 509.70 245.75
  Q 511.98 246.44 514.13 247.92
  Q 517.05 249.92 520.20 250.67
  Q 521.26 250.92 520.46 250.18
  Q 519.32 249.09 518.39 247.92
  Q 517.47 246.74 515.95 246.35
  C 514.33 245.93 512.63 245.67 511.10 244.97
  Q 506.87 243.05 503.81 239.81
  A 1.56 1.55 -60.6 0 1 503.42 238.40
  L 504.69 232.37
  A 1.91 1.91 0.0 0 1 507.49 231.10
  Q 511.68 233.43 516.22 234.92
  Q 520.01 236.17 523.29 238.13
  Q 536.17 245.87 549.62 254.14
  C 551.43 255.25 552.97 256.81 555.01 257.45
  Q 558.33 258.49 559.26 262.33
  Q 559.39 262.87 559.95 262.91
  Q 560.28 262.93 560.48 263.21
  A 0.71 0.70 54.4 0 1 560.32 264.20
  Q 559.82 264.57 559.51 265.12
  Q 558.57 266.83 560.52 266.78
  C 564.61 266.67 567.70 267.74 570.58 270.75
  Q 575.99 276.44 582.03 281.99
  C 583.56 283.40 585.41 283.72 586.12 285.81
  Q 586.29 286.32 586.72 286.66
  C 588.45 288.01 589.07 289.85 590.61 291.32
  Q 591.09 291.77 591.56 292.21
  Q 592.05 292.67 592.15 293.31
  Q 592.83 297.53 592.61 302.86
  Q 592.52 304.94 591.20 306.31
  Q 590.85 306.68 590.37 306.50
  C 587.66 305.47 586.05 303.52 584.69 301.06
  Q 583.98 299.76 582.93 298.58
  Q 575.15 289.81 566.99 281.39
  Q 564.58 278.90 561.89 277.76
  Q 561.35 277.54 561.17 276.99
  Q 560.41 274.65 558.01 273.62
  C 556.19 272.84 554.94 271.71 553.58 270.32
  Q 552.85 269.57 551.85 269.20
  Q 548.84 268.08 545.94 265.38
  Q 545.85 265.30 545.76 265.37
  L 545.49 265.61
  Q 545.29 265.78 545.45 265.99
  C 547.93 269.22 551.93 271.45 555.12 274.07
  Q 555.50 274.38 555.98 274.38
  L 557.15 274.38
  Q 557.66 274.38 557.96 274.78
  Q 559.97 277.48 561.27 278.84
  Q 571.29 289.20 580.82 299.21
  Q 582.77 301.26 589.53 309.76
  Q 589.84 310.15 590.29 310.37
  Q 591.84 311.12 592.14 312.65
  Q 592.21 313.02 592.49 313.27
  Q 592.61 313.37 592.77 313.40
  Q 593.14 313.45 593.19 313.08
  Q 593.85 308.27 593.60 303.48
  C 593.52 301.83 594.43 300.17 595.17 298.74
  Q 595.29 298.50 595.55 298.59
  Q 595.70 298.64 595.78 298.76
  Q 595.92 298.99 595.90 298.73
  Q 595.88 298.47 595.87 298.20
  Q 595.84 297.48 596.45 297.87
  Q 596.80 298.09 596.84 298.72
  Z
  M 276.52 291.33
  Q 281.35 286.38 287.15 280.91
  C 290.88 277.39 294.98 274.21 299.11 271.01
  C 301.25 269.36 302.78 267.33 305.43 266.42
  A 1.23 1.21 0.4 0 0 306.15 265.72
  Q 306.31 265.30 306.69 265.06
  Q 311.01 262.18 314.78 259.11
  A 0.46 0.46 0.0 0 0 314.83 258.44
  Q 314.59 258.18 314.23 258.20
  Q 313.36 258.25 312.73 258.65
  Q 305.79 263.10 298.09 268.96
  C 295.95 270.59 294.20 272.55 291.91 273.92
  Q 289.02 275.64 286.70 278.06
  Q 285.57 279.24 284.09 280.13
  Q 282.69 280.97 281.89 282.42
  Q 280.33 285.19 277.31 287.62
  Q 276.94 287.92 276.78 288.37
  C 276.47 289.25 276.35 289.83 275.53 290.39
  Q 273.05 292.11 271.01 294.06
  Q 270.25 294.79 270.08 295.83
  Q 270.05 296.03 270.11 296.23
  A 0.58 0.58 0.0 0 0 271.04 296.49
  Q 273.81 294.11 276.52 291.33
  Z"
/>
<path fill="#d4e1cc" d="
  M 276.52 291.33
  Q 273.81 294.11 271.04 296.49
  A 0.58 0.58 0.0 0 1 270.11 296.23
  Q 270.05 296.03 270.08 295.83
  Q 270.25 294.79 271.01 294.06
  Q 273.05 292.11 275.53 290.39
  C 276.35 289.83 276.47 289.25 276.78 288.37
  Q 276.94 287.92 277.31 287.62
  Q 280.33 285.19 281.89 282.42
  Q 282.69 280.97 284.09 280.13
  Q 285.57 279.24 286.70 278.06
  Q 289.02 275.64 291.91 273.92
  C 294.20 272.55 295.95 270.59 298.09 268.96
  Q 305.79 263.10 312.73 258.65
  Q 313.36 258.25 314.23 258.20
  Q 314.59 258.18 314.83 258.44
  A 0.46 0.46 0.0 0 1 314.78 259.11
  Q 311.01 262.18 306.69 265.06
  Q 306.31 265.30 306.15 265.72
  A 1.23 1.21 0.4 0 1 305.43 266.42
  C 302.78 267.33 301.25 269.36 299.11 271.01
  C 294.98 274.21 290.88 277.39 287.15 280.91
  Q 281.35 286.38 276.52 291.33
  Z"
/>
<path fill="#e1eadc" d="
  M 246.02 280.33
  Q 246.85 285.46 247.24 289.75
  Q 248.88 307.93 249.15 325.38
  C 249.18 326.99 250.13 328.22 249.40 329.81
  A 0.67 0.67 0.0 0 0 250.05 330.75
  Q 252.23 330.62 254.12 330.70
  Q 284.42 331.87 307.00 332.07
  Q 316.41 332.15 327.00 332.32
  C 394.62 333.40 461.36 334.39 528.51 335.72
  C 547.51 336.09 566.86 336.08 586.04 336.69
  Q 586.44 337.51 586.10 338.06
  Q 585.86 338.45 585.41 338.43
  Q 578.69 338.15 572.15 338.68
  Q 571.99 338.69 571.90 338.56
  Q 571.87 338.52 571.88 338.47
  Q 571.89 338.36 571.79 338.36
  Q 569.97 338.36 568.08 338.35
  Q 567.55 338.35 567.16 338.70
  Q 566.43 339.38 565.46 339.56
  Q 564.37 339.77 565.41 340.10
  Q 565.46 340.11 565.48 340.15
  Q 565.66 340.47 565.49 340.79
  Q 565.10 341.53 564.31 341.59
  Q 563.88 341.63 564.28 341.78
  Q 564.43 341.84 564.48 342.00
  A 0.34 0.33 -24.7 0 1 564.33 342.39
  Q 564.22 342.45 564.12 342.53
  Q 563.62 342.90 564.22 342.77
  Q 565.20 342.57 565.90 343.07
  Q 566.45 343.46 567.12 343.54
  L 569.45 343.83
  Q 570.08 343.91 570.51 344.37
  Q 570.89 344.78 571.43 344.65
  Q 572.36 344.44 571.64 345.06
  Q 571.22 345.42 570.78 345.83
  C 551.07 345.48 531.34 344.91 511.64 344.80
  Q 429.61 344.36 403.75 343.58
  Q 380.86 342.89 357.96 342.61
  C 355.82 342.41 353.79 342.03 351.67 342.01
  Q 332.49 341.91 313.28 341.65
  Q 275.01 341.55 259.25 341.89
  Q 251.68 342.06 228.30 343.40
  L 225.45 343.04
  A 0.46 0.46 0.0 0 1 225.04 342.52
  L 225.09 342.18
  Q 225.17 341.53 225.82 341.44
  L 229.24 340.94
  Q 229.90 340.84 229.55 340.28
  Q 227.72 337.34 229.89 334.60
  Q 230.95 333.26 231.74 331.81
  Q 234.83 326.13 238.14 319.83
  Q 239.78 316.71 242.08 313.72
  Q 243.13 312.36 244.53 311.69
  A 0.68 0.68 0.0 0 1 245.50 312.29
  L 245.73 325.04
  Q 245.74 325.37 246.04 325.26
  L 246.48 325.11
  Q 246.63 325.05 246.62 324.89
  Q 246.15 317.77 246.61 310.32
  Q 246.93 305.12 246.03 300.66
  Q 245.56 298.31 245.79 295.75
  Q 246.01 293.28 245.86 290.77
  Q 245.84 290.45 245.67 290.21
  Q 245.52 290.00 245.37 289.82
  A 1.31 1.20 24.1 0 1 245.08 289.15
  Q 244.54 284.43 246.02 280.33
  Z"
/>
<path fill="#e1eadc" d="
  M 605.47 310.56
  Q 608.22 315.21 611.51 319.58
  C 612.27 320.59 612.59 322.35 611.12 322.98
  A 1.48 1.47 65.9 0 0 610.37 324.95
  L 612.90 330.50
  Q 614.07 333.03 611.30 333.34
  Q 610.91 333.38 610.53 333.32
  Q 608.11 332.95 607.26 330.65
  Q 606.20 327.73 604.37 325.55
  Q 599.89 320.22 602.52 314.10
  Q 603.04 312.91 603.08 311.85
  Q 603.16 310.24 603.19 308.65
  A 1.13 1.04 62.6 0 1 603.32 308.17
  Q 603.80 307.31 604.29 307.57
  Q 604.54 307.70 604.66 307.94
  C 605.07 308.74 605.00 309.77 605.47 310.56
  Z"
/>
<path fill="#259862" d="
  M 46.97 334.61
  L 46.97 509.31
  Q 38.78 507.86 34.94 501.07
  L 34.97 342.90
  Q 39.58 337.68 46.97 334.61
  Z"
/>
<path fill="#259862" d="
  M 818.11 351.47
  L 818.15 497.76
  Q 814.88 504.39 805.97 509.66
  L 805.62 340.07
  Q 806.12 339.60 806.47 339.82
  Q 815.05 344.93 818.11 351.47
  Z"
/>
<path fill="#000000" d="
  M 313.28 341.65
  Q 317.45 342.39 322.49 342.13
  Q 326.51 341.93 333.33 342.06
  Q 333.84 342.07 335.16 342.31
  Q 335.92 342.45 337.00 342.51
  Q 348.75 343.09 357.96 342.61
  Q 380.86 342.89 403.75 343.58
  Q 429.61 344.36 511.64 344.80
  C 531.34 344.91 551.07 345.48 570.78 345.83
  Q 576.07 346.21 577.75 346.26
  Q 600.60 346.99 623.74 349.01
  Q 641.10 350.52 658.22 353.21
  C 677.10 356.18 695.86 361.22 712.93 369.81
  Q 723.44 375.10 732.29 383.49
  Q 750.14 400.40 751.60 425.35
  Q 752.16 434.85 751.28 465.72
  C 751.19 469.05 750.66 472.37 750.50 475.74
  C 749.32 500.54 744.73 524.67 735.22 546.55
  Q 731.88 554.20 728.02 560.68
  C 719.11 575.62 707.28 589.42 693.42 600.23
  Q 675.77 613.99 655.75 623.25
  C 652.01 624.98 648.15 626.89 644.32 628.38
  Q 625.23 635.78 610.78 639.72
  Q 571.37 650.48 524.46 654.97
  Q 510.13 656.34 496.72 657.10
  Q 438.21 660.45 374.40 657.21
  Q 337.33 655.33 300.55 649.99
  C 263.00 644.54 225.05 635.36 190.89 619.55
  Q 182.54 615.69 172.64 609.81
  C 141.35 591.20 117.05 563.80 106.21 528.74
  Q 100.11 509.02 98.36 488.80
  Q 95.70 458.00 97.72 416.27
  Q 97.86 413.55 99.93 404.79
  Q 101.11 399.79 104.49 393.14
  Q 107.62 387.00 111.21 382.66
  Q 120.49 371.45 134.04 364.30
  C 150.67 355.51 169.40 350.97 188.26 347.74
  Q 204.18 345.01 228.30 343.40
  Q 251.68 342.06 259.25 341.89
  Q 275.01 341.55 313.28 341.65
  Z
  M 405.90 590.79
  Q 407.03 592.47 408.92 591.75
  Q 411.54 590.75 418.27 585.57
  Q 424.64 580.68 433.67 573.16
  Q 517.66 503.29 604.25 431.45
  C 606.26 429.79 608.40 428.51 610.58 427.13
  A 1.17 1.17 0.0 0 1 611.92 427.19
  Q 614.46 429.13 614.86 432.55
  Q 619.28 470.38 623.82 509.32
  Q 624.53 515.42 625.45 521.09
  Q 626.23 525.83 627.86 528.00
  C 632.93 534.76 639.79 532.87 646.67 531.08
  Q 684.04 521.33 721.29 511.46
  Q 729.43 509.31 737.93 506.88
  C 739.68 506.38 741.34 505.55 742.09 503.76
  C 744.94 496.96 745.50 490.06 744.91 482.39
  Q 744.87 481.87 744.34 481.93
  Q 741.39 482.27 738.53 483.01
  Q 697.63 493.56 660.06 503.66
  Q 654.42 505.18 649.41 505.16
  A 1.88 1.87 75.9 0 1 647.76 504.17
  Q 646.54 501.89 646.23 499.41
  Q 640.83 456.54 635.34 407.38
  C 634.43 399.22 633.60 391.94 624.42 388.89
  Q 622.54 388.27 620.69 389.15
  Q 616.13 391.32 613.09 393.84
  Q 589.39 413.48 534.57 459.24
  C 522.19 469.57 509.26 480.00 496.97 490.37
  Q 489.38 496.77 481.61 503.15
  Q 452.54 527.05 426.15 549.35
  C 420.61 554.03 420.08 538.45 420.07 536.62
  Q 420.04 517.78 419.98 498.81
  Q 419.96 492.12 419.05 485.86
  C 417.89 477.95 412.13 473.19 403.99 476.12
  Q 394.68 479.47 384.24 483.43
  Q 324.98 505.88 266.96 527.72
  C 263.29 529.10 261.41 525.05 261.00 522.00
  Q 258.09 500.20 255.37 474.51
  Q 255.03 471.30 254.33 467.51
  C 253.21 461.49 252.01 455.12 244.72 454.21
  Q 241.57 453.81 238.49 454.35
  C 228.69 456.04 219.05 458.67 208.83 461.02
  Q 201.74 462.66 194.53 464.34
  Q 148.45 475.08 113.85 482.80
  C 111.03 483.43 108.41 484.53 105.59 485.14
  Q 105.14 485.23 105.08 485.68
  Q 104.60 489.43 105.87 492.63
  Q 107.60 497.00 108.34 501.67
  C 108.74 504.16 110.50 507.63 113.51 506.86
  Q 127.34 503.35 141.98 500.11
  Q 149.30 498.49 157.29 496.67
  Q 191.65 488.84 224.28 481.14
  Q 231.46 479.45 232.87 486.09
  Q 233.72 490.12 234.17 494.25
  Q 237.15 521.90 240.51 547.00
  C 241.24 552.44 245.95 556.84 251.32 557.12
  Q 253.88 557.25 259.21 555.31
  Q 267.04 552.45 274.75 549.54
  Q 320.43 532.32 368.73 514.17
  C 372.17 512.88 375.44 511.19 378.98 510.25
  C 385.71 508.45 397.20 499.87 397.14 514.58
  Q 396.99 545.15 397.07 573.02
  C 397.09 580.13 398.22 586.47 405.15 590.11
  A 2.15 2.11 -2.2 0 1 405.90 590.79
  Z"
/>
<path fill="#259862" d="
  M 357.96 342.61
  Q 348.75 343.09 337.00 342.51
  Q 335.92 342.45 335.16 342.31
  Q 333.84 342.07 333.33 342.06
  Q 326.51 341.93 322.49 342.13
  Q 317.45 342.39 313.28 341.65
  Q 332.49 341.91 351.67 342.01
  C 353.79 342.03 355.82 342.41 357.96 342.61
  Z"
/>
<path fill="#d4e1cc" d="
  M 34.97 342.90
  L 34.94 501.07
  Q 27.99 493.72 23.62 485.64
  Q 15.61 470.81 12.18 454.24
  Q 7.81 433.11 9.26 410.93
  Q 10.40 393.49 15.47 377.46
  C 19.51 364.68 25.63 352.68 34.97 342.90
  Z"
/>
<path fill="#d4e1cc" d="
  M 818.11 351.47
  C 829.89 367.59 835.52 385.64 838.17 405.42
  Q 838.88 410.71 839.01 416.73
  Q 839.30 430.29 838.51 439.65
  Q 837.55 451.06 834.09 465.03
  Q 833.87 465.89 833.87 466.87
  Q 833.87 467.38 833.53 467.75
  Q 832.95 468.39 832.71 469.19
  Q 830.69 475.91 827.17 483.34
  Q 826.85 484.02 827.54 483.74
  Q 827.83 483.63 828.01 483.36
  C 828.22 483.06 828.42 482.81 828.68 482.54
  Q 829.04 482.16 828.80 482.62
  Q 828.44 483.33 827.82 483.91
  Q 827.45 484.25 827.28 484.72
  Q 826.48 486.93 824.73 488.63
  A 0.04 0.04 0.0 0 1 824.67 488.59
  Q 824.83 488.24 824.67 488.28
  Q 824.58 488.30 824.53 488.39
  Q 822.28 492.73 818.15 497.76
  L 818.11 351.47
  Z"
/>
<path fill="#17fb5f" d="
  M 405.15 590.11
  C 398.22 586.47 397.09 580.13 397.07 573.02
  Q 396.99 545.15 397.14 514.58
  C 397.20 499.87 385.71 508.45 378.98 510.25
  C 375.44 511.19 372.17 512.88 368.73 514.17
  Q 320.43 532.32 274.75 549.54
  Q 267.04 552.45 259.21 555.31
  Q 253.88 557.25 251.32 557.12
  C 245.95 556.84 241.24 552.44 240.51 547.00
  Q 237.15 521.90 234.17 494.25
  Q 233.72 490.12 232.87 486.09
  Q 231.46 479.45 224.28 481.14
  Q 191.65 488.84 157.29 496.67
  Q 149.30 498.49 141.98 500.11
  Q 127.34 503.35 113.51 506.86
  C 110.50 507.63 108.74 504.16 108.34 501.67
  Q 107.60 497.00 105.87 492.63
  Q 104.60 489.43 105.08 485.68
  Q 105.14 485.23 105.59 485.14
  C 108.41 484.53 111.03 483.43 113.85 482.80
  Q 148.45 475.08 194.53 464.34
  Q 201.74 462.66 208.83 461.02
  C 219.05 458.67 228.69 456.04 238.49 454.35
  Q 241.57 453.81 244.72 454.21
  C 252.01 455.12 253.21 461.49 254.33 467.51
  Q 255.03 471.30 255.37 474.51
  Q 258.09 500.20 261.00 522.00
  C 261.41 525.05 263.29 529.10 266.96 527.72
  Q 324.98 505.88 384.24 483.43
  Q 394.68 479.47 403.99 476.12
  C 412.13 473.19 417.89 477.95 419.05 485.86
  Q 419.96 492.12 419.98 498.81
  Q 420.04 517.78 420.07 536.62
  C 420.08 538.45 420.61 554.03 426.15 549.35
  Q 452.54 527.05 481.61 503.15
  Q 489.38 496.77 496.97 490.37
  C 509.26 480.00 522.19 469.57 534.57 459.24
  Q 589.39 413.48 613.09 393.84
  Q 616.13 391.32 620.69 389.15
  Q 622.54 388.27 624.42 388.89
  C 633.60 391.94 634.43 399.22 635.34 407.38
  Q 640.83 456.54 646.23 499.41
  Q 646.54 501.89 647.76 504.17
  A 1.88 1.87 75.9 0 0 649.41 505.16
  Q 654.42 505.18 660.06 503.66
  Q 697.63 493.56 738.53 483.01
  Q 741.39 482.27 744.34 481.93
  Q 744.87 481.87 744.91 482.39
  C 745.50 490.06 744.94 496.96 742.09 503.76
  C 741.34 505.55 739.68 506.38 737.93 506.88
  Q 729.43 509.31 721.29 511.46
  Q 684.04 521.33 646.67 531.08
  C 639.79 532.87 632.93 534.76 627.86 528.00
  Q 626.23 525.83 625.45 521.09
  Q 624.53 515.42 623.82 509.32
  Q 619.28 470.38 614.86 432.55
  Q 614.46 429.13 611.92 427.19
  A 1.17 1.17 0.0 0 0 610.58 427.13
  C 608.40 428.51 606.26 429.79 604.25 431.45
  Q 517.66 503.29 433.67 573.16
  Q 424.64 580.68 418.27 585.57
  Q 411.54 590.75 408.92 591.75
  Q 407.03 592.47 405.90 590.79
  A 2.15 2.11 -2.2 0 0 405.15 590.11
  Z"
/>
</svg>
