<svg xmlns="http://www.w3.org/2000/svg" width="27.435" height="32" viewBox="0 0 27.435 32">
  <g id="Double_Down" data-name="Double Down" transform="translate(-5.999 -5)">
    <path id="Path_173" data-name="Path 173" d="M19.716,21.279A2.26,2.26,0,0,1,18.1,20.6L6.669,8.971a2.355,2.355,0,0,1,0-3.291,2.26,2.26,0,0,1,3.232,0l9.815,9.984L29.532,5.68a2.26,2.26,0,0,1,3.232,0,2.355,2.355,0,0,1,0,3.291L21.332,20.6A2.26,2.26,0,0,1,19.716,21.279Z" transform="translate(0)" fill="#10762e" fill-rule="evenodd"/>
    <path id="Path_174" data-name="Path 174" d="M19.716,28.279A2.26,2.26,0,0,1,18.1,27.6L6.669,15.971a2.355,2.355,0,0,1,0-3.291,2.26,2.26,0,0,1,3.232,0l9.815,9.984,9.815-9.984a2.26,2.26,0,0,1,3.232,0,2.355,2.355,0,0,1,0,3.291L21.332,27.6A2.26,2.26,0,0,1,19.716,28.279Z" transform="translate(0 8.721)" fill="#10762c" fill-rule="evenodd" opacity="0.4"/>
  </g>
</svg>
