<svg id="Icon_Contact_24_Gray" data-name="Icon Contact 24 Gray" xmlns="http://www.w3.org/2000/svg" width="24" height="24" viewBox="0 0 24 24">
  <rect id="frame" width="24" height="24" fill="none"/>
  <g id="Iconly_Light-Outline_Chat" data-name="Iconly/Light-Outline/Chat" transform="translate(0.339 0.005)">
    <g id="Chat" transform="translate(1 1)">
      <path id="Combined-Shape" d="M10.748,0a10.748,10.748,0,0,1,7.6,18.35,10.8,10.8,0,0,1-12.13,2.155,3.579,3.579,0,0,0-1.106-.33,4.334,4.334,0,0,0-1.195.3c-.874.3-1.962.674-2.767-.128s-.432-1.888-.134-2.761a4.3,4.3,0,0,0,.3-1.21,3.513,3.513,0,0,0-.337-1.135,10.783,10.783,0,0,1,2.17-12.1A10.674,10.674,0,0,1,10.748,0Zm0,1.5A9.186,9.186,0,0,0,4.208,4.208a9.293,9.293,0,0,0-1.853,10.44,4.722,4.722,0,0,1,.46,1.729,5.407,5.407,0,0,1-.378,1.694c-.146.428-.367,1.074-.225,1.216S3,19.2,3.43,19.057a5.46,5.46,0,0,1,1.678-.382,4.646,4.646,0,0,1,1.706.453A9.255,9.255,0,0,0,17.289,4.207,9.186,9.186,0,0,0,10.749,1.5ZM14.7,10.163a1,1,0,1,1-.009,0Zm-4.009,0a1,1,0,1,1-.009,0Zm-4.009,0a1,1,0,1,1-.009,0Z" fill="#121212" fill-rule="evenodd"/>
    </g>
  </g>
</svg>
