<svg xmlns="http://www.w3.org/2000/svg" width="28.321" height="32.565" viewBox="0 0 28.321 32.565">
  <path id="dextools" d="M10.532,1.842C8.592,2.852,7,3.707,7.005,3.742c0,.09,4.656,2.447,4.821,2.442a9.052,9.052,0,0,0,1.212-.558l1.075-.553,1.174.6,1.174.6,1.923-.864c2.9-1.3,3.2-1.444,3.151-1.492-.063-.064-1.1-.622-3.921-2.106C16.251,1.1,14.929.4,14.675.255A2.648,2.648,0,0,0,14.136,0c-.042,0-1.664.831-3.6,1.841ZM2.023,6.248,0,7.291v4.578c0,2.518.027,4.578.059,4.578s1.026-.431,2.208-.957l2.149-.957V9.707l1.05.572Q6.683,10.94,7.9,11.6l1.379.747.614-.277q.577-.261,1.152-.528c.3-.138,1.023-.465,1.616-.728a13.51,13.51,0,0,0,1.218-.587c.1-.08-1.156-.776-4.658-2.574C6.579,6.294,4.334,5.19,4.231,5.195A21.935,21.935,0,0,0,2.023,6.248ZM21.9,6.541c-1.375.621-2.5,1.154-2.5,1.184s.748.476,1.666.99a18.289,18.289,0,0,1,1.668,1,18.576,18.576,0,0,1-1.8.874L15.352,13.1,8.4,16.243,4.9,17.826C1.335,19.441.354,19.89.219,19.967s-.166.528-.19,2.787L0,25.449l1.806.92,1.806.92,2.5-1.13c1.377-.622,2.5-1.163,2.5-1.2a2,2,0,0,0-.565-.369c-.311-.163-.953-.524-1.427-.8a11.226,11.226,0,0,0-1.05-.568c-.1-.034-.187-.093-.185-.131s1.1-.562,2.45-1.164c2.614-1.169,4.615-2.07,8.909-4.012q2.883-1.3,5.764-2.6c1.686-.762,3.649-1.652,4.36-1.978l1.292-.592.029-2.725.029-2.725-1.832-.94c-1.007-.517-1.869-.939-1.914-.937S23.274,5.92,21.9,6.541Zm5.78,9.832c-.27.132-.8.379-1.185.548s-1.106.5-1.61.726l-.916.418-.021,2.393a16.339,16.339,0,0,1-.108,2.38c-.108-.016-1.824-.9-3.549-1.82-1.245-.667-1.323-.693-1.616-.549-.169.084-1.18.537-2.246,1.008s-1.973.886-2.016.924,2.1,1.2,4.769,2.585L24.028,27.5l2.07-1.071a23.294,23.294,0,0,0,2.151-1.194c.1-.152.092-9.125-.009-9.112a4.862,4.862,0,0,0-.563.248ZM16.213,26.9l-1.077.464c-1.084.469-.872.485-2.161-.157-.859-.428-1.229-.559-1.39-.5-.121.048-1.158.515-2.305,1.037s-2.126.95-2.175.95c-.481,0,.319.478,3.407,2.036l3.622,1.827,1.524-.752c.838-.414,2.529-1.242,3.757-1.841s2.218-1.1,2.2-1.124-1.048-.547-2.287-1.174l-2.253-1.14Z" transform="translate(0 0)" fill="#20fb5f" fill-rule="evenodd"/>
</svg>
