<svg xmlns="http://www.w3.org/2000/svg" width="32.469" height="32.41" viewBox="0 0 32.469 32.41">
  <g id="etherscan" transform="translate(0 -0.181)">
    <path id="Path_181" data-name="Path 181" d="M6.748,15.586A1.376,1.376,0,0,1,8.13,14.21l2.292.007A1.378,1.378,0,0,1,11.8,15.6v8.666c.258-.077.589-.158.952-.244a1.147,1.147,0,0,0,.885-1.117V12.151a1.378,1.378,0,0,1,1.378-1.378h2.3a1.378,1.378,0,0,1,1.378,1.378v9.977s.575-.233,1.135-.469a1.15,1.15,0,0,0,.7-1.058V8.706A1.378,1.378,0,0,1,21.9,7.328h2.3a1.378,1.378,0,0,1,1.378,1.378V18.5a26.932,26.932,0,0,0,5.61-5.265,2.312,2.312,0,0,0,.352-2.159A16.22,16.22,0,1,0,2.155,24.48a2.051,2.051,0,0,0,1.957,1.014c.434-.038.975-.092,1.618-.168a1.147,1.147,0,0,0,1.018-1.139Z" transform="translate(0 0)" fill="#20fb5f"/>
    <path id="Path_182" data-name="Path 182" d="M25.1,70.892A16.225,16.225,0,0,0,50.873,57.767c0-.374-.017-.743-.042-1.111C44.9,65.5,33.956,69.632,25.1,70.891" transform="translate(-18.404 -41.406)" fill="#20fb5f"/>
  </g>
</svg>
