<svg id="facebook-24" xmlns="http://www.w3.org/2000/svg" width="24" height="24" viewBox="0 0 24 24">
  <rect id="frame" width="24" height="24" fill="none"/>
  <path id="Facebook" d="M13.957,7.733a.432.432,0,0,1,.293-.124h2.7a.5.5,0,0,0,.5-.5v-3.6a.5.5,0,0,0-.5-.5h-2.7a5.083,5.083,0,0,0-3.536,1.457A5,5,0,0,0,9.25,8.009v2.2H7.05a.5.5,0,0,0-.5.5v3.6a.5.5,0,0,0,.5.5h2.2v6.7a.5.5,0,0,0,.5.5h3.6a.5.5,0,0,0,.5-.5v-6.7h3.1a.5.5,0,0,0,.5-.5v-3.6a.5.5,0,0,0-.5-.5h-3.1v-2.2A.4.4,0,0,1,13.957,7.733Z" transform="translate(0.001 -0.509)" fill="#121212" fill-rule="evenodd"/>
</svg>
