<svg id="instagram-24" xmlns="http://www.w3.org/2000/svg" width="24" height="24" viewBox="0 0 24 24">
  <rect id="frame" width="24" height="24" fill="none"/>
  <g id="Instagram" transform="translate(-0.5 -0.25)">
    <path id="Path_26" data-name="Path 26" d="M3.99,3.9A5.381,5.381,0,0,1,8.032,2.25h8.435A5.382,5.382,0,0,1,20.513,3.9,5.955,5.955,0,0,1,22,8.026v7.947A5.954,5.954,0,0,1,20.513,20.1a5.383,5.383,0,0,1-4.047,1.648H8.032A5.38,5.38,0,0,1,3.987,20.1,5.956,5.956,0,0,1,2.5,15.974V8.026A5.952,5.952,0,0,1,3.99,3.9Zm1.1,1.023A4.461,4.461,0,0,0,4,8.026v7.947A4.464,4.464,0,0,0,5.085,19.08a3.885,3.885,0,0,0,2.948,1.17h8.434a3.888,3.888,0,0,0,2.949-1.17A4.463,4.463,0,0,0,20.5,15.974V8.026A4.464,4.464,0,0,0,19.415,4.92a3.887,3.887,0,0,0-2.948-1.17H8.032A3.887,3.887,0,0,0,5.087,4.92Z" fill="#121212" fill-rule="evenodd"/>
    <path id="Path_27" data-name="Path 27" d="M12.094,9.576a2.753,2.753,0,1,0,2.753,2.753A2.753,2.753,0,0,0,12.094,9.576ZM7.842,12.329a4.253,4.253,0,1,1,4.253,4.253A4.253,4.253,0,0,1,7.842,12.329Z" fill="#121212" fill-rule="evenodd"/>
    <path id="Path_28" data-name="Path 28" d="M16.079,7.381a1.035,1.035,0,1,1,1.035,1.034A1.036,1.036,0,0,1,16.079,7.381Z" fill="#121212" fill-rule="evenodd"/>
  </g>
</svg>
