<svg width="48px"  height="48px"  viewBox="0 0 25 24" fill="none" xmlns="http://www.w3.org/2000/svg">
<path d="M12.0075 12.0798V12.0847M12.0531 11.7854C12.1987 11.7849 12.3167 11.9029 12.3171 12.0485C12.3176 12.194 12.1996 12.312 12.0541 12.3125C11.9085 12.313 11.7905 12.195 11.79 12.0494C11.79 11.9044 11.908 11.7854 12.0531 11.7854Z" stroke="#20FB5F"  stroke-width="1.5"  stroke-linecap="round" stroke-linejoin="round"/>
<path d="M5.67799 18.3616C2.16463 14.8482 2.16463 9.15252 5.67799 5.63916" stroke="#20FB5F"  stroke-width="1.5"  stroke-linecap="round" stroke-linejoin="round"/>
<path d="M8.86207 15.1806C7.10587 13.4244 7.10587 10.5765 8.86207 8.82031" stroke="#20FB5F"  stroke-width="1.5"  stroke-linecap="round" stroke-linejoin="round"/>
<path d="M18.4082 5.63867C21.9216 9.15203 21.9216 14.8477 18.4082 18.3611" stroke="#20FB5F"  stroke-width="1.5"  stroke-linecap="round" stroke-linejoin="round"/>
<path d="M15.2266 8.81982C16.9828 10.576 16.9828 13.4239 15.2266 15.1801" stroke="#20FB5F"  stroke-width="1.5"  stroke-linecap="round" stroke-linejoin="round"/>
</svg>