<svg xmlns="http://www.w3.org/2000/svg" width="31.927" height="26.791" viewBox="0 0 31.927 26.791">
  <path id="telegram" d="M18.628,24.806l-3.6,3.349a.665.665,0,0,1-1.119-.529c.113-1.7.288-4.288.405-5.726a1.135,1.135,0,0,1,.391-.645Q21.016,15.531,27.348,9.82c.156-.141.341-.488.244-.671-.11-.207-.615-.144-.824-.013Q18.733,14.2,10.706,19.265a1.31,1.31,0,0,1-1.1.138c-2.206-.709-4.424-1.38-6.635-2.078-.508-.161-1.112-.321-1.17-.951-.061-.659.5-.972,1.014-1.176,2.056-.829,4.125-1.622,6.192-2.42q11.152-4.3,22.3-8.59a5.534,5.534,0,0,1,.84-.207A1.2,1.2,0,0,1,33.706,5a6.087,6.087,0,0,1-.164,1.791q-2.323,11.051-4.686,22.1c-.422,1.99-1.446,2.367-3.093,1.151C23.641,28.475,18.628,24.806,18.628,24.806Z" transform="translate(-1.796 -3.946)" fill="#20fb5f" fill-rule="evenodd"/>
</svg>
